<svg width="14" height="14" viewBox="0 0 14 14" fill="none" xmlns="http://www.w3.org/2000/svg">
<path d="M13.6188 10.2746L11.6651 8.32085C10.9673 7.62308 9.78114 7.90222 9.50203 8.80928C9.2927 9.4373 8.59494 9.78618 7.96695 9.6466C6.57142 9.29772 4.68745 7.48353 4.33857 6.01822C4.12924 5.39021 4.5479 4.69244 5.17589 4.48314C6.08298 4.20403 6.36209 3.01783 5.66432 2.32007L3.71058 0.366327C3.15237 -0.122109 2.31505 -0.122109 1.82662 0.366327L0.500865 1.69208C-0.824889 3.08761 0.640418 6.78576 3.91991 10.0653C7.19941 13.3448 10.8976 14.8799 12.2931 13.4843L13.6188 12.1586C14.1073 11.6003 14.1073 10.763 13.6188 10.2746Z" fill="#28344A"/>
</svg>
