<svg width="88" height="102" viewBox="0 0 88 102" fill="none" xmlns="http://www.w3.org/2000/svg">
<path d="M79.1028 43.4043C79.1028 51.644 76.3341 59.2844 71.6946 65.4267C69.1504 68.7226 66.0823 71.6439 62.5653 73.8911C56.8782 77.6364 50.0687 79.8087 42.7353 79.8087C22.606 79.7338 6.29297 63.4043 6.29297 43.4043C6.29297 23.2546 22.606 7 42.6605 7C49.9938 7 56.8034 9.17228 62.4905 12.8427C66.0075 15.0899 69.0756 18.0112 71.6198 21.3071C76.3341 27.4494 79.1028 35.0898 79.1028 43.4043Z" fill="#EAEEF9"/>
<path d="M4.27211 70.2953C4.94559 70.2953 5.54423 69.771 5.54423 69.0219C5.54423 68.3478 5.02042 67.7485 4.27211 67.7485C3.59864 67.7485 3 68.2729 3 69.0219C3.07483 69.771 3.59864 70.2953 4.27211 70.2953Z" fill="url(#paint0_linear)"/>
<path d="M64.5846 10.4457C65.2581 10.4457 65.8567 9.92139 65.8567 9.17233C65.8567 8.49817 65.3329 7.89893 64.5846 7.89893C63.9111 7.89893 63.3125 8.42327 63.3125 9.17233C63.3125 9.84648 63.9111 10.4457 64.5846 10.4457Z" fill="url(#paint1_linear)"/>
<path d="M87.1095 32.2433C88.2319 31.1947 88.3068 29.4718 87.2591 28.3482C86.2115 27.2246 84.4904 27.1497 83.2931 28.1984C82.1707 29.2471 82.0958 30.9699 83.1435 32.0935C84.1911 33.2171 85.987 33.292 87.1095 32.2433Z" fill="#EAEEF9"/>
<path d="M86.5098 20.1084C87.1833 20.1084 87.7071 19.5841 87.7071 18.9099C87.7071 18.2358 87.1833 17.7114 86.5098 17.7114C85.8363 17.7114 85.3125 18.2358 85.3125 18.9099C85.3125 19.5841 85.8363 20.1084 86.5098 20.1084Z" fill="url(#paint2_linear)"/>
<g filter="url(#filter0_d)">
<path d="M69.0438 25.6754L69.599 73.8198C69.599 75.4177 68.2804 76.7376 66.6842 76.7376H19.9071C18.3108 76.7376 16.9922 75.4177 16.9922 73.8198V11.9198C16.9922 10.3219 18.3108 9.00195 19.9071 9.00195H53.8447L69.0438 25.6754Z" fill="white"/>
</g>
<path d="M53.8438 9.07129V22.3405C53.8438 24.1468 55.44 25.7447 57.3139 25.7447H69.1122" fill="#F0F4F8"/>
<path d="M26.1529 33.0393C25.8753 33.0393 25.5977 32.7614 25.5977 32.4835C25.5977 32.2056 25.8753 31.9277 26.1529 31.9277H59.4659C59.7435 31.9277 60.0211 32.2056 60.0211 32.4835C60.0211 32.7614 59.7435 33.0393 59.4659 33.0393H26.1529Z" fill="#CED7E2"/>
<path d="M26.1529 37.3464C25.8753 37.3464 25.5977 37.0685 25.5977 36.7906C25.5977 36.5128 25.8753 36.2349 26.1529 36.2349H59.4659C59.7435 36.2349 60.0211 36.5128 60.0211 36.7906C60.0211 37.0685 59.7435 37.3464 59.4659 37.3464H26.1529Z" fill="#CED7E2"/>
<path d="M26.1529 41.5847C25.8753 41.5847 25.5977 41.3068 25.5977 41.0289C25.5977 40.751 25.8753 40.4731 26.1529 40.4731H59.4659C59.7435 40.4731 60.0211 40.751 60.0211 41.0289C60.0211 41.3068 59.7435 41.5847 59.4659 41.5847H26.1529Z" fill="#CED7E2"/>
<path d="M26.1529 45.8918C25.8753 45.8918 25.5977 45.6139 25.5977 45.3361C25.5977 45.0582 25.8753 44.7803 26.1529 44.7803H59.4659C59.7435 44.7803 60.0211 45.0582 60.0211 45.3361C60.0211 45.6139 59.7435 45.8918 59.4659 45.8918H26.1529Z" fill="#CED7E2"/>
<path d="M26.1529 50.1296C25.8753 50.1296 25.5977 49.8517 25.5977 49.5738C25.5977 49.296 25.8753 49.0181 26.1529 49.0181H59.4659C59.7435 49.0181 60.0211 49.296 60.0211 49.5738C60.0211 49.8517 59.7435 50.1296 59.4659 50.1296H26.1529Z" fill="#CED7E2"/>
<path d="M26.1529 54.3674C25.8753 54.3674 25.5977 54.0895 25.5977 53.8116C25.5977 53.5337 25.8753 53.2559 26.1529 53.2559H40.7967C41.0743 53.2559 41.352 53.5337 41.352 53.8116C41.352 54.0895 41.0743 54.3674 40.7967 54.3674H26.1529Z" fill="#CED7E2"/>
<path d="M41.7684 22.4102H26.2223C25.8753 22.4102 25.5977 22.1323 25.5977 21.7849C25.5977 21.4376 25.8753 21.1597 26.2223 21.1597H41.7684C42.1154 21.1597 42.393 21.4376 42.393 21.7849C42.393 22.0628 42.1154 22.4102 41.7684 22.4102Z" fill="#CED7E2"/>
<path d="M33.9259 25.6753H26.2223C25.8753 25.6753 25.5977 25.3974 25.5977 25.0501C25.5977 24.7027 25.8753 24.4248 26.2223 24.4248H33.9259C34.2729 24.4248 34.5505 24.7027 34.5505 25.0501C34.5505 25.3974 34.2729 25.6753 33.9259 25.6753Z" fill="#CED7E2"/>
<path d="M56.8277 67.359C56.6889 66.3863 56.6195 65.6916 55.9255 65.4137C54.815 65.1358 54.468 66.5948 53.3576 67.7758C53.0106 68.1231 52.5248 68.401 52.1084 68.6789C51.9696 68.7484 51.6919 68.8873 51.6225 68.6095C51.3449 67.7758 51.6225 68.1926 52.8024 66.8726C53.3576 66.2474 53.7046 65.4832 53.5658 64.5106C53.4964 63.9548 53.1494 63.4685 52.5942 63.2601C52.039 63.0517 51.4837 63.1211 51.0673 63.6074C50.0957 64.7885 50.3733 65.5527 50.3039 67.2895C50.3039 67.4284 50.2345 67.5674 50.0957 67.6368C49.1241 68.1926 48.083 68.54 46.8338 68.6789C46.8338 68.6095 46.8338 68.6095 46.8338 68.6095C47.4584 67.7758 48.7077 66.2474 48.9853 63.7464C49.1241 62.7738 49.1241 61.8012 48.6383 60.898C47.736 59.2307 45.2375 59.4391 44.1271 61.4538C43.0167 63.6769 43.2249 67.0116 44.7517 68.9568C44.4047 69.2347 44.1271 69.5126 43.7801 69.721C43.5719 69.86 43.5025 70.2073 43.6413 70.4157C43.7801 70.6936 44.1965 70.7631 44.4741 70.5547C45.5846 69.6515 45.5152 69.721 45.654 69.6515C45.8622 69.5821 46.0704 69.6515 46.2786 69.6515C47.042 69.6515 47.5278 69.5821 48.083 69.5126C48.3606 69.4431 50.2345 68.7484 50.3039 68.7484C50.3039 68.7484 50.3039 68.8179 50.3733 68.8873C50.5815 69.6515 50.9979 69.9294 51.8308 69.86C52.4554 69.7905 53.0106 69.5126 53.4964 69.0958C54.0516 68.54 54.9538 67.4284 55.4397 66.7337C55.5785 67.22 55.5785 67.6368 55.7173 68.0537C55.9949 68.8179 56.7583 68.9568 57.2441 68.3316C57.7993 67.7063 58.0075 66.8726 58.6322 66.5253C58.8404 66.4558 58.9792 66.2474 58.9792 66.039C58.9792 65.6221 58.5628 65.4137 58.2157 65.5527C57.6605 65.9 57.2441 66.5948 56.8277 67.359ZM45.654 68.3316C45.0987 67.6368 44.8905 66.8726 44.7517 65.9695C44.4741 64.719 44.6129 63.399 45.0987 62.218C45.3763 61.5927 45.7234 61.1064 46.4174 60.9675C47.1114 60.8285 47.5972 60.9675 47.736 61.6622C48.3606 64.0937 47.389 66.3863 45.654 68.3316ZM51.5531 64.6495C51.9696 63.8159 52.4554 64.5801 52.386 64.9274C52.2472 65.3443 52.039 65.6916 51.8308 66.039C51.6919 66.2474 51.5531 66.3863 51.3449 66.5948C51.2755 65.9 51.2755 65.2748 51.5531 64.6495Z" fill="url(#paint3_linear)"/>
<path d="M31.9822 70.2071C31.4964 70.6934 30.8024 70.9713 30.2472 70.5545C29.4143 69.9292 29.1367 69.7903 28.5815 69.7208C27.8875 69.6513 27.2629 69.5818 27.0547 68.8177C26.9853 68.6092 26.9853 68.4703 26.9853 68.2619C26.9159 67.7756 26.7077 67.2893 26.3606 66.8724C25.8748 66.3166 25.5278 65.8303 25.8748 65.2051C26.2912 64.5104 26.7077 64.2325 26.7077 63.3988C26.7077 63.1209 26.7076 62.9125 26.7771 62.7041C26.9159 62.1483 27.4017 61.7315 27.9569 61.7315C28.1651 61.7315 28.3733 61.662 28.5815 61.662C29.2755 61.5925 29.4837 61.1062 30.386 60.7588C30.6636 60.6199 30.9412 60.6894 31.2188 60.8283C31.427 60.9673 31.6352 61.1062 31.9128 61.3146C32.5374 61.8009 32.9538 61.5925 33.8561 61.8704C34.2725 62.0093 34.4807 62.3567 34.5501 62.7041C34.5501 63.1209 34.6889 63.6072 34.8277 63.9546C35.1747 64.6493 35.8687 64.9967 35.7993 65.7609C35.7993 65.8998 35.7299 66.1082 35.6605 66.1777C35.3135 66.5945 35.0359 67.1503 34.8277 67.7061C34.7583 67.9145 34.7583 68.0535 34.7583 68.2619C34.7583 68.6787 34.6195 69.0261 34.3419 69.2345C33.5091 70.0682 32.7456 69.4429 31.9822 70.2071ZM27.6099 67.6366C28.7203 69.2345 30.8718 69.7208 32.5374 68.6092C34.1337 67.6366 34.5501 65.4135 33.5785 63.8851C33.5785 63.8851 33.5785 63.8156 33.5091 63.8156C32.468 62.2178 30.1778 61.7315 28.5815 62.843C26.9853 63.8156 26.5688 66.0388 27.5405 67.5671C27.6099 67.5671 27.6099 67.6366 27.6099 67.6366Z" fill="#CED7E2"/>
<path d="M28.93 63.3296C30.2486 62.4264 32.1225 62.7738 33.0941 64.1632C33.9964 65.4137 33.6493 67.22 32.4001 68.1232L32.3307 68.1926C31.0121 69.0958 29.1382 68.6789 28.1666 67.359C27.2643 66.1085 27.6114 64.3022 28.8606 63.399C28.8606 63.3296 28.8606 63.3296 28.93 63.3296Z" fill="#CED7E2"/>
<defs>
<filter id="filter0_d" x="0.478876" y="0.745297" width="85.6335" height="100.762" filterUnits="userSpaceOnUse" color-interpolation-filters="sRGB">
<feFlood flood-opacity="0" result="BackgroundImageFix"/>
<feColorMatrix in="SourceAlpha" type="matrix" values="0 0 0 0 0 0 0 0 0 0 0 0 0 0 0 0 0 0 127 0" result="hardAlpha"/>
<feOffset dy="8.25666"/>
<feGaussianBlur stdDeviation="8.25666"/>
<feColorMatrix type="matrix" values="0 0 0 0 0.397708 0 0 0 0 0.47749 0 0 0 0 0.575 0 0 0 0.26 0"/>
<feBlend mode="normal" in2="BackgroundImageFix" result="effect1_dropShadow"/>
<feBlend mode="normal" in="SourceGraphic" in2="effect1_dropShadow" result="shape"/>
</filter>
<linearGradient id="paint0_linear" x1="3.00703" y1="69.0249" x2="5.42592" y2="69.0249" gradientUnits="userSpaceOnUse">
<stop stop-color="#FF7139"/>
<stop offset="1" stop-color="#E48952"/>
</linearGradient>
<linearGradient id="paint1_linear" x1="63.3195" y1="9.17533" x2="65.7384" y2="9.17533" gradientUnits="userSpaceOnUse">
<stop stop-color="#FF7139"/>
<stop offset="1" stop-color="#E48952"/>
</linearGradient>
<linearGradient id="paint2_linear" x1="85.3593" y1="18.9106" x2="87.6311" y2="18.9106" gradientUnits="userSpaceOnUse">
<stop stop-color="#83A6FF"/>
<stop offset="1" stop-color="#5A78FF"/>
</linearGradient>
<linearGradient id="paint3_linear" x1="43.4631" y1="65.2274" x2="59.1691" y2="65.2274" gradientUnits="userSpaceOnUse">
<stop stop-color="#83A6FF"/>
<stop offset="1" stop-color="#5A78FF"/>
</linearGradient>
</defs>
</svg>
