<svg width="175" height="47" viewBox="0 0 175 47" fill="none" xmlns="http://www.w3.org/2000/svg">
<path d="M19.5915 0H0.351379V46.0833L19.5915 0Z" fill="#0F2420" fill-opacity="0.16"/>
<path d="M33.1286 0H52.3437V46.0833L33.1286 0Z" fill="#0F2420" fill-opacity="0.16"/>
<path d="M26.36 16.9849L38.6061 46.0835H30.5716L26.9115 36.8192H17.9495L26.36 16.9849Z" fill="#0F2420" fill-opacity="0.16"/>
<path d="M83.7326 29.3057L86.0013 35.8209C86.0765 35.9841 86.1893 36.0594 86.3898 36.0594H90.7518C90.9899 36.0594 91.0275 35.9464 90.9899 35.7079L81.9778 10.6389C81.9401 10.4381 81.9025 10.4004 81.702 10.4004H76.2872C76.1368 10.4004 76.049 10.5134 76.049 10.6766C75.9738 11.9947 75.861 12.3964 75.6981 12.7855L67.6636 35.6703C67.626 35.9465 67.7137 36.0594 67.9393 36.0594H71.8375C72.0757 36.0594 72.1885 35.9841 72.2762 35.7456L74.4196 29.3057H83.7326ZM75.6605 25.0501C76.8387 21.485 78.3929 16.9156 79.0197 14.3045H79.0573C79.8344 17.0411 81.6644 22.4642 82.4917 25.0501H75.6605Z" fill="#0F2420" fill-opacity="0.16"/>
<path d="M102.576 36.4487C104.92 36.4487 107.414 36.0219 109.946 34.9298C110.146 34.8544 110.184 34.7666 110.184 34.5783C110.109 33.8753 110.021 32.8585 110.021 32.0802V8.47987C110.021 8.32923 110.021 8.25391 109.833 8.25391H105.584C105.421 8.25391 105.346 8.32923 105.346 8.53008V16.5266C104.681 16.4512 104.218 16.4136 103.666 16.4136C96.8099 16.4136 92.5984 20.9453 92.5984 26.6069C92.5984 33.1723 96.9227 36.4487 102.576 36.4487ZM105.346 32.0802C104.644 32.3061 103.867 32.394 103.077 32.394C99.9686 32.394 97.4241 30.6365 97.4241 26.3684C97.4241 22.5898 100.044 20.3553 103.516 20.3553C104.218 20.3553 104.832 20.4307 105.346 20.6315V32.0802Z" fill="#0F2420" fill-opacity="0.16"/>
<path d="M123.74 16.4136C117.886 16.4136 114.264 20.9077 114.264 26.4563C114.264 31.4148 117.146 36.4487 123.652 36.4487C129.154 36.4487 133.015 32.394 133.015 26.3307C133.015 20.983 129.743 16.4136 123.74 16.4136ZM123.501 20.3553C126.81 20.3553 128.214 23.2049 128.214 26.4563C128.214 30.4733 126.146 32.4693 123.74 32.4693C120.769 32.4693 119.014 29.9712 119.014 26.3684C119.014 22.6651 120.882 20.3553 123.501 20.3553Z" fill="#0F2420" fill-opacity="0.16"/>
<path d="M137.408 8.25391C137.245 8.25391 137.132 8.32923 137.132 8.53008V35.2436C137.132 35.3566 137.245 35.5574 137.408 35.5951C139.276 36.1725 141.231 36.4487 143.249 36.4487C149.027 36.4487 154.643 32.8585 154.643 25.6277C154.643 20.393 151.058 16.4136 145.442 16.4136C144.151 16.4136 142.948 16.6144 141.895 16.9659L141.845 8.56774C141.845 8.29157 141.77 8.25391 141.494 8.25391H137.408ZM149.842 26.1048C149.842 30.4357 146.884 32.4693 143.688 32.4693C143.023 32.4693 142.434 32.4316 141.895 32.2685V20.87C142.509 20.6315 143.249 20.4307 144.615 20.4307C147.699 20.4307 149.842 22.389 149.842 26.1048Z" fill="#0F2420" fill-opacity="0.16"/>
<path d="M170.5 27.5107C172.405 27.5107 173.972 27.4731 174.511 27.3475C174.712 27.3099 174.787 27.2346 174.825 27.0714C174.937 26.6445 174.988 25.7533 174.988 24.6611C174.988 20.9453 172.756 16.4136 166.991 16.4136C161.1 16.4136 157.828 21.2215 157.828 26.6445C157.828 31.4525 160.36 36.4487 167.454 36.4487C170.112 36.4487 171.829 36.0219 173.308 35.3189C173.458 35.2436 173.534 35.1181 173.534 34.8921V31.6408C173.534 31.4525 173.421 31.4148 173.308 31.4901C171.829 32.1178 170.225 32.4316 168.47 32.4316C164.496 32.4316 162.691 30.2348 162.579 27.5107H170.5ZM162.579 24.1464C162.892 22.2383 164.095 20.167 166.79 20.167C169.761 20.167 170.538 22.6651 170.538 23.7949C170.538 23.8326 170.538 23.9958 170.538 24.1088C170.375 24.1464 169.874 24.1464 168.394 24.1464H162.579Z" fill="#0F2420" fill-opacity="0.16"/>
</svg>
