<svg width="152" height="61" viewBox="0 0 152 61" fill="none" xmlns="http://www.w3.org/2000/svg">
<path d="M19.6064 13.2471C8.91179 13.2471 0 17.7815 0 31.4615C0 42.2991 5.99254 49.124 19.8825 49.124C36.2317 49.124 37.2797 38.3609 37.2797 38.3609H29.3578C29.3578 38.3609 27.6593 44.1564 19.3993 44.1564C12.6717 44.1564 7.83303 39.6145 7.83303 33.2485H38.1082V29.2537C38.1082 22.9556 34.1076 13.2471 19.6064 13.2471ZM19.3302 18.3526C25.7342 18.3526 30.0999 22.2734 30.0999 28.1498H8.00824C8.00824 21.9113 13.7067 18.3526 19.3302 18.3526Z" fill="#0F2420" fill-opacity="0.16"/>
<path d="M38.1025 0V42.2537C38.1025 44.6521 37.9312 48.0198 37.9312 48.0198H45.4871C45.4871 48.0198 45.7583 45.6011 45.7583 43.3906C45.7583 43.3906 49.4914 49.2272 59.6419 49.2272C70.3309 49.2272 77.5914 41.8108 77.5914 31.1853C77.5914 21.3005 70.9224 13.3503 59.6592 13.3503C49.112 13.3503 45.8346 19.0424 45.8346 19.0424V0H38.1025ZM57.7089 18.5766C64.9675 18.5766 69.5832 23.9605 69.5832 31.1853C69.5832 38.9326 64.2523 44.0009 57.7607 44.0009C50.0136 44.0009 45.8346 37.9558 45.8346 31.2543C45.8346 25.0098 49.5845 18.5766 57.7089 18.5766Z" fill="#0F2420" fill-opacity="0.16"/>
<path d="M96.3693 13.2471C80.2801 13.2471 79.2483 22.0513 79.2483 23.4582H87.2565C87.2565 23.4582 87.6764 18.3181 95.817 18.3181C101.107 18.3181 105.206 20.7379 105.206 25.39V27.0459H95.817C83.3525 27.0459 76.7629 30.69 76.7629 38.0849C76.7629 45.3626 82.8515 49.3223 91.0794 49.3223C102.293 49.3223 105.905 43.1301 105.905 43.1301C105.905 45.593 106.095 48.0201 106.095 48.0201H113.214C113.214 48.0201 112.938 45.0117 112.938 43.087V26.4508C112.938 15.5427 104.134 13.2471 96.3693 13.2471ZM105.206 32.0134V34.2213C105.206 37.1008 103.428 44.2599 92.9606 44.2599C87.2288 44.2599 84.7712 41.401 84.7712 38.0849C84.7712 32.0523 93.0473 32.0134 105.206 32.0134Z" fill="#0F2420" fill-opacity="0.16"/>
<path d="M108.626 14.6284H117.635L130.565 40.516L143.465 14.6284H151.626L128.129 60.7164H119.568L126.349 47.8688L108.626 14.6284Z" fill="#0F2420" fill-opacity="0.16"/>
</svg>
