<svg width="175" height="45" viewBox="0 0 175 45" fill="none" xmlns="http://www.w3.org/2000/svg">
<path d="M56.604 34.7538L58.7782 29.6936C61.1277 31.4506 64.2487 32.3643 67.3347 32.3643C69.6141 32.3643 71.0518 31.4858 71.0518 30.1504C71.0168 26.4255 57.4106 29.3422 57.3054 19.9948C57.2703 15.2508 61.4784 11.5962 67.4399 11.5962C70.9817 11.5962 74.5235 12.4747 77.0484 14.4777L75.0145 19.6434C72.7 18.1675 69.8245 17.1133 67.0892 17.1133C65.2306 17.1133 64.0033 17.9918 64.0033 19.1163C64.0383 22.7709 77.7497 20.7679 77.89 29.6936C77.89 34.543 73.7871 37.9516 67.8958 37.9516C63.5825 37.9516 59.6198 36.9325 56.604 34.7538ZM140.03 27.8663C138.943 29.7639 136.909 31.0641 134.559 31.0641C131.087 31.0641 128.282 28.2528 128.282 24.7739C128.282 21.295 131.087 18.4837 134.559 18.4837C136.909 18.4837 138.943 19.7839 140.03 21.6815L146.026 18.3432C143.782 14.3372 139.469 11.5962 134.559 11.5962C127.3 11.5962 121.409 17.4998 121.409 24.7739C121.409 32.048 127.3 37.9516 134.559 37.9516C139.504 37.9516 143.782 35.2458 146.026 31.2046L140.03 27.8663ZM80.9058 0.66748H88.4102V37.4597H80.9058V0.66748ZM148.972 0.66748V37.4597H156.476V26.4255L165.383 37.4597H174.992L163.665 24.3522L174.15 12.1233H164.963L156.476 22.2789V0.66748H148.972ZM110.713 27.9366C109.626 29.7287 107.382 31.0641 104.857 31.0641C101.385 31.0641 98.5798 28.2528 98.5798 24.7739C98.5798 21.295 101.385 18.4837 104.857 18.4837C107.382 18.4837 109.626 19.8894 110.713 21.7167V27.9366ZM110.713 12.1233V15.1103C109.486 13.037 106.435 11.5962 103.244 11.5962C96.6511 11.5962 91.4611 17.4295 91.4611 24.7388C91.4611 32.048 96.6511 37.9516 103.244 37.9516C106.435 37.9516 109.486 36.5109 110.713 34.4376V37.4245H118.218V12.1233H110.713Z" fill="#0F2420" fill-opacity="0.16"/>
<path d="M10.2098 27.9017C10.2098 30.467 8.14082 32.5403 5.58089 32.5403C3.02096 32.5403 0.951981 30.467 0.951981 27.9017C0.951981 25.3365 3.02096 23.2632 5.58089 23.2632H10.2098V27.9017ZM12.5243 27.9017C12.5243 25.3365 14.5932 23.2632 17.1532 23.2632C19.7131 23.2632 21.7821 25.3365 21.7821 27.9017V39.4981C21.7821 42.0634 19.7131 44.1367 17.1532 44.1367C14.5932 44.1367 12.5243 42.0634 12.5243 39.4981V27.9017Z" fill="#0F2420" fill-opacity="0.16"/>
<path d="M17.1531 9.27711C14.5932 9.27711 12.5242 7.20382 12.5242 4.63855C12.5242 2.07329 14.5932 0 17.1531 0C19.713 0 21.782 2.07329 21.782 4.63855V9.27711H17.1531ZM17.1531 11.6315C19.713 11.6315 21.782 13.7048 21.782 16.2701C21.782 18.8353 19.713 20.9086 17.1531 20.9086H5.54575C2.98582 20.9086 0.91684 18.8353 0.91684 16.2701C0.91684 13.7048 2.98582 11.6315 5.54575 11.6315H17.1531Z" fill="#0F2420" fill-opacity="0.16"/>
<path d="M35.7038 16.2701C35.7038 13.7048 37.7728 11.6315 40.3327 11.6315C42.8926 11.6315 44.9616 13.7048 44.9616 16.2701C44.9616 18.8353 42.8926 20.9086 40.3327 20.9086H35.7038V16.2701ZM33.3893 16.2701C33.3893 18.8353 31.3203 20.9086 28.7604 20.9086C26.2005 20.9086 24.1315 18.8353 24.1315 16.2701V4.63855C24.1315 2.07329 26.2005 0 28.7604 0C31.3203 0 33.3893 2.07329 33.3893 4.63855V16.2701Z" fill="#0F2420" fill-opacity="0.16"/>
<path d="M28.7604 34.8596C31.3203 34.8596 33.3893 36.9329 33.3893 39.4981C33.3893 42.0634 31.3203 44.1367 28.7604 44.1367C26.2005 44.1367 24.1315 42.0634 24.1315 39.4981V34.8596H28.7604ZM28.7604 32.5403C26.2005 32.5403 24.1315 30.467 24.1315 27.9017C24.1315 25.3365 26.2005 23.2632 28.7604 23.2632H40.3678C42.9277 23.2632 44.9967 25.3365 44.9967 27.9017C44.9967 30.467 42.9277 32.5403 40.3678 32.5403H28.7604Z" fill="#0F2420" fill-opacity="0.16"/>
</svg>
