<svg width="146" height="51" viewBox="0 0 146 51" fill="none" xmlns="http://www.w3.org/2000/svg">
<path d="M8.74704 35.9713C9.35852 37.5984 10.2051 38.9897 11.2869 40.145C12.3688 41.3005 13.6504 42.1847 15.1319 42.7978C16.6135 43.4109 18.2244 43.7174 19.9647 43.7174C21.6581 43.7174 23.2454 43.399 24.727 42.7623C26.2086 42.1255 27.502 41.2296 28.6073 40.0742C29.7125 38.9187 30.571 37.5394 31.1824 35.936C31.7939 34.3325 32.0996 32.5406 32.0996 30.5597V0H39.5074V49.518H32.1702V44.9198C30.524 46.6646 28.5837 48.0087 26.3496 48.9521C24.1154 49.8952 21.7051 50.3668 19.1182 50.3668C16.4841 50.3668 14.0267 49.9069 11.7454 48.9874C9.46436 48.0678 7.4888 46.7592 5.81921 45.0613C4.14962 43.3635 2.83253 41.3241 1.8684 38.9424C0.904108 36.5608 0.422043 33.9082 0.422043 30.9841V0H7.8299V30.5597C7.8299 32.5406 8.13556 34.3442 8.74704 35.9713Z" fill="#0F2420" fill-opacity="0.16"/>
<path d="M52.2767 0V18.0387C53.9228 16.3881 55.8278 15.0795 57.9914 14.1126C60.1549 13.1458 62.5067 12.6624 65.0464 12.6624C67.6804 12.6624 70.1495 13.1575 72.4543 14.1479C74.7589 15.1382 76.7577 16.4823 78.451 18.1802C80.1444 19.878 81.4849 21.8822 82.4726 24.193C83.4603 26.504 83.9541 28.9563 83.9541 31.5501C83.9541 34.1437 83.4603 36.5843 82.4726 38.8715C81.4849 41.1588 80.1444 43.1514 78.451 44.8489C76.7577 46.5468 74.7589 47.8909 72.4543 48.8812C70.1495 49.8716 67.6803 50.3667 65.0464 50.3667C62.5065 50.3667 60.1432 49.8833 57.9561 48.9164C55.769 47.9497 53.8523 46.641 52.2061 44.9904V49.5178H45.151V0H52.2767ZM53.088 36.4311C53.7229 37.9403 54.6049 39.2608 55.7337 40.3926C56.8625 41.5245 58.1795 42.4206 59.6845 43.0808C61.1897 43.741 62.8123 44.0711 64.5526 44.0711C66.2459 44.0711 67.845 43.741 69.35 43.0808C70.8551 42.4206 72.1601 41.5246 73.2657 40.3926C74.371 39.2609 75.2528 37.9403 75.9113 36.4311C76.5698 34.922 76.899 33.295 76.899 31.5501C76.899 29.8051 76.5698 28.1663 75.9113 26.6336C75.2528 25.1008 74.371 23.7686 73.2657 22.6368C72.1603 21.5051 70.8552 20.6207 69.35 19.9841C67.8448 19.3475 66.2458 19.029 64.5526 19.029C62.8595 19.029 61.2603 19.3474 59.7552 19.9841C58.2502 20.6209 56.9332 21.5051 55.8043 22.6368C54.6756 23.7686 53.7819 25.1008 53.1234 26.6336C52.4649 28.1663 52.1357 29.8051 52.1357 31.5501C52.1355 33.295 52.4531 34.922 53.088 36.4311Z" fill="#0F2420" fill-opacity="0.16"/>
<path d="M87.9748 24.2638C88.9153 22.0001 90.209 20.0077 91.855 18.2864C93.5011 16.565 95.4532 15.2092 97.7109 14.2188C99.9685 13.2285 102.414 12.7334 105.048 12.7334C107.635 12.7334 110.034 13.205 112.244 14.1481C114.455 15.0913 116.36 16.4 117.959 18.0743C119.558 19.7483 120.805 21.7292 121.698 24.0163C122.592 26.3037 123.039 28.7914 123.039 31.4796V33.814H93.76C93.9953 35.276 94.4657 36.6318 95.1711 37.8814C95.8767 39.1311 96.7584 40.2158 97.8167 41.1354C98.875 42.0551 100.074 42.7744 101.415 43.293C102.755 43.8117 104.178 44.0712 105.683 44.0712C109.963 44.0712 113.42 42.3026 116.054 38.7656L121.205 42.5855C119.417 44.9907 117.207 46.8771 114.573 48.2447C111.939 49.6123 108.976 50.2961 105.683 50.2961C103.002 50.2961 100.498 49.8244 98.1697 48.8813C95.8414 47.9382 93.819 46.6176 92.1023 44.9198C90.3856 43.2219 89.0334 41.2295 88.0457 38.9423C87.058 36.6551 86.564 34.1673 86.564 31.4792C86.5637 28.9327 87.0342 26.5275 87.9748 24.2638ZM97.8873 21.4695C95.8883 23.1437 94.5596 25.372 93.9012 28.1544H115.843C115.231 25.372 113.926 23.1437 111.927 21.4695C109.928 19.7954 107.588 18.9583 104.907 18.9583C102.226 18.9583 99.8862 19.7954 97.8873 21.4695Z" fill="#0F2420" fill-opacity="0.16"/>
<path d="M136.372 22.2832C134.867 23.9338 134.115 26.1739 134.115 29.0036V49.5183H126.989V13.4409H134.044V17.8975C134.938 16.4355 136.102 15.2801 137.536 14.4312C138.971 13.5822 140.676 13.1577 142.651 13.1577H145.121V19.8073H142.157C139.806 19.8075 137.877 20.6327 136.372 22.2832Z" fill="#0F2420" fill-opacity="0.16"/>
</svg>
